<?xml version="1.0" standalone="no"?><!DOCTYPE svg PUBLIC "-//W3C//DTD SVG 1.1//EN" "http://www.w3.org/Graphics/SVG/1.1/DTD/svg11.dtd"><svg t="1714297933965" class="icon" viewBox="0 0 1074 1024" version="1.1" xmlns="http://www.w3.org/2000/svg" p-id="3039" xmlns:xlink="http://www.w3.org/1999/xlink" width="209.765625" height="200"><path d="M153.596913 900.231013V400.54828a153.559537 153.559537 0 0 1 144.601897-14.792903L433.075271 441.395116c93.261826 40.590904 130.116114 112.098462 91.623857 195.634851-1.893901 4.197294-3.941361 8.189842-6.142382 12.080017l39.720734 12.643068 278.966492-144.141219c69.56247-31.633265 130.883912-26.105121 167.687015 26.872919 44.378706 63.829581 20.269859 127.403229-37.212595 181.200254-21.14003 19.757994-129.348317 104.574045-331.790973 260.385788a153.559537 153.559537 0 0 1-144.550711 23.18749l-310.54857-109.027271H153.596913z m-51.186512 0h-11.568152c-3.736615-113.480498-5.016278-193.792136-3.890175-240.9861h-3.685429c-21.907827 17.915279-53.745838-55.281433-71.661117-77.138074a51.186512 51.186512 0 0 1 7.166112-72.07061L102.410401 441.599862v458.631151z" fill="#FAD572" p-id="3040"></path><path d="M0.037376 409.761852a51.186512 51.186512 0 1 1 102.373025 0v563.051636a51.186512 51.186512 0 0 1-102.373025 0V409.761852zM922.418329 50.432535a171.116511 171.116511 0 0 1 0 241.958644l-97.203187 97.254373c-29.176312 29.176312-68.129248 44.941758-108.566593 44.941758s-79.441467-15.816632-108.566593-44.941758l-97.254373-97.254373A171.116511 171.116511 0 0 1 716.648549 22.689445a171.218884 171.218884 0 0 1 205.76978 27.691904z" fill="#FAD572" p-id="3041"></path></svg>