<?xml version="1.0" standalone="no"?><!DOCTYPE svg PUBLIC "-//W3C//DTD SVG 1.1//EN" "http://www.w3.org/Graphics/SVG/1.1/DTD/svg11.dtd"><svg t="1714297842508" class="icon" viewBox="0 0 1024 1024" version="1.1" xmlns="http://www.w3.org/2000/svg" p-id="1680" xmlns:xlink="http://www.w3.org/1999/xlink" width="200" height="200"><path d="M597.333333 96a32 32 0 0 1 30.421334 41.941333l-1.792 4.352L590.464 213.333333l35.498667 71.04a32 32 0 0 1-23.936 45.952L597.333333 330.666667H373.333333V426.666667c0 2.56-0.298667 5.12-0.853333 7.509333 16.213333 4.48 31.744 12.501333 45.226667 24.106667l6.613333 6.101333L597.333333 637.397333l45.013334-45.013333a117.333333 117.333333 0 0 1 160.085333-5.504l5.888 5.504 97.792 97.834667c12.288 12.245333 19.84 28.330667 21.504 45.397333l0.384 7.381333V853.333333a74.666667 74.666667 0 0 1-68.522667 74.410667L853.333333 928H170.666667a74.666667 74.666667 0 0 1-74.410667-68.565333L96 853.333333v-195.669333c0-17.322667 6.016-34.048 16.896-47.317333l4.992-5.461334 140.458667-140.501333c14.933333-14.933333 32.853333-25.002667 51.882666-30.208l-0.682666-3.669333L309.333333 426.666667V128a31.914667 31.914667 0 0 1 26.794667-31.573333L341.333333 96h256z m-218.282666 413.610667a53.333333 53.333333 0 0 0-71.082667-3.84l-4.352 3.84-140.501333 140.501333a10.666667 10.666667 0 0 0-2.730667 4.778667l-0.384 2.773333V853.333333a10.666667 10.666667 0 0 0 8.234667 10.368L170.666667 864h682.666666a10.666667 10.666667 0 0 0 10.368-8.234667L864 853.333333v-110.336a10.666667 10.666667 0 0 0-1.408-5.333333l-1.706667-2.218667-97.834666-97.834666a53.333333 53.333333 0 0 0-71.082667-3.84l-4.352 3.84-67.669333 67.669333a32 32 0 0 1-41.642667 3.114667l-3.584-3.114667-195.669333-195.669333z m166.485333-349.610667H373.333333v106.666667h172.202667l-19.498667-39.04a32 32 0 0 1-1.877333-23.978667l1.877333-4.608 19.498667-39.04z" fill="#FAD572" p-id="1681"></path></svg>