<?xml version="1.0" standalone="no"?><!DOCTYPE svg PUBLIC "-//W3C//DTD SVG 1.1//EN" "http://www.w3.org/Graphics/SVG/1.1/DTD/svg11.dtd"><svg t="1714297965364" class="icon" viewBox="0 0 1024 1024" version="1.1" xmlns="http://www.w3.org/2000/svg" p-id="5858" xmlns:xlink="http://www.w3.org/1999/xlink" width="200" height="200"><path d="M512 486.1L832.3 124.18c16.472-18.612 44.912-20.346 63.524-3.876 18.61 16.47 20.346 44.91 3.874 63.52l-354 400c-17.908 20.238-49.488 20.238-67.396 0l-354-400c-16.472-18.61-14.736-47.05 3.874-63.52 18.612-16.47 47.052-14.736 63.522 3.876L512 486.1zM191.7 436.18L512 798.1 832.3 436.18c16.472-18.612 44.912-20.346 63.524-3.876 18.61 16.47 20.346 44.91 3.874 63.52l-354 400c-17.908 20.238-49.488 20.238-67.396 0l-354-400c-16.472-18.61-14.736-47.05 3.874-63.52 18.612-16.47 47.052-14.736 63.522 3.876z" fill="#FAD572" p-id="5859"></path></svg>